<mxfile host="app.diagrams.net" modified="2023-10-28T22:16:35.027Z" agent="Mozilla/5.0 (Windows NT 10.0; Win64; x64) AppleWebKit/537.36 (KHTML, like Gecko) Chrome/118.0.0.0 Safari/537.36" etag="M-3eTsj_7sd6PCQOJ0tc" version="22.0.8" type="device">
  <diagram name="Сторінка-1" id="XLTZdmGpz6_vItkN0Fcj">
    <mxGraphModel dx="1434" dy="800" grid="1" gridSize="10" guides="1" tooltips="1" connect="1" arrows="1" fold="1" page="1" pageScale="1" pageWidth="827" pageHeight="1169" math="0" shadow="0">
      <root>
        <mxCell id="0" />
        <mxCell id="1" parent="0" />
        <mxCell id="j5q3sJ4_oy7Jc_l38y-Y-3" value="Dialog" style="swimlane;fontStyle=1;align=center;verticalAlign=top;childLayout=stackLayout;horizontal=1;startSize=26;horizontalStack=0;resizeParent=1;resizeParentMax=0;resizeLast=0;collapsible=1;marginBottom=0;whiteSpace=wrap;html=1;fillColor=#dae8fc;strokeColor=#6c8ebf;" parent="1" vertex="1">
          <mxGeometry x="630" y="370" width="180" height="144" as="geometry" />
        </mxCell>
        <mxCell id="j5q3sJ4_oy7Jc_l38y-Y-4" value="+ type: DialogueType&lt;br&gt;+ pos: Map&amp;lt;double,double&amp;gt;&lt;br&gt;+ text: DialogText&lt;br&gt;+ onDelete: Function&lt;br&gt;+ onCreate: Function" style="text;strokeColor=none;fillColor=none;align=left;verticalAlign=top;spacingLeft=4;spacingRight=4;overflow=hidden;rotatable=0;points=[[0,0.5],[1,0.5]];portConstraint=eastwest;whiteSpace=wrap;html=1;" parent="j5q3sJ4_oy7Jc_l38y-Y-3" vertex="1">
          <mxGeometry y="26" width="180" height="84" as="geometry" />
        </mxCell>
        <mxCell id="j5q3sJ4_oy7Jc_l38y-Y-5" value="" style="line;strokeWidth=1;fillColor=none;align=left;verticalAlign=middle;spacingTop=-1;spacingLeft=3;spacingRight=3;rotatable=0;labelPosition=right;points=[];portConstraint=eastwest;strokeColor=inherit;" parent="j5q3sJ4_oy7Jc_l38y-Y-3" vertex="1">
          <mxGeometry y="110" width="180" height="8" as="geometry" />
        </mxCell>
        <mxCell id="j5q3sJ4_oy7Jc_l38y-Y-6" value="+ method(type): type" style="text;strokeColor=none;fillColor=none;align=left;verticalAlign=top;spacingLeft=4;spacingRight=4;overflow=hidden;rotatable=0;points=[[0,0.5],[1,0.5]];portConstraint=eastwest;whiteSpace=wrap;html=1;" parent="j5q3sJ4_oy7Jc_l38y-Y-3" vertex="1">
          <mxGeometry y="118" width="180" height="26" as="geometry" />
        </mxCell>
        <mxCell id="j5q3sJ4_oy7Jc_l38y-Y-7" value="DialogText" style="swimlane;fontStyle=1;align=center;verticalAlign=top;childLayout=stackLayout;horizontal=1;startSize=26;horizontalStack=0;resizeParent=1;resizeParentMax=0;resizeLast=0;collapsible=1;marginBottom=0;whiteSpace=wrap;html=1;fillColor=#ffe6cc;strokeColor=#d79b00;" parent="1" vertex="1">
          <mxGeometry x="850" y="450" width="160" height="114" as="geometry">
            <mxRectangle x="310" y="95" width="100" height="30" as="alternateBounds" />
          </mxGeometry>
        </mxCell>
        <mxCell id="j5q3sJ4_oy7Jc_l38y-Y-8" value="+ textArray: TextSection&lt;br&gt;+ animation: List&amp;lt;TextAnimation&amp;gt;" style="text;strokeColor=none;fillColor=none;align=left;verticalAlign=top;spacingLeft=4;spacingRight=4;overflow=hidden;rotatable=0;points=[[0,0.5],[1,0.5]];portConstraint=eastwest;whiteSpace=wrap;html=1;" parent="j5q3sJ4_oy7Jc_l38y-Y-7" vertex="1">
          <mxGeometry y="26" width="160" height="54" as="geometry" />
        </mxCell>
        <mxCell id="j5q3sJ4_oy7Jc_l38y-Y-9" value="" style="line;strokeWidth=1;fillColor=none;align=left;verticalAlign=middle;spacingTop=-1;spacingLeft=3;spacingRight=3;rotatable=0;labelPosition=right;points=[];portConstraint=eastwest;strokeColor=inherit;" parent="j5q3sJ4_oy7Jc_l38y-Y-7" vertex="1">
          <mxGeometry y="80" width="160" height="8" as="geometry" />
        </mxCell>
        <mxCell id="j5q3sJ4_oy7Jc_l38y-Y-10" value="+ Build" style="text;strokeColor=none;fillColor=none;align=left;verticalAlign=top;spacingLeft=4;spacingRight=4;overflow=hidden;rotatable=0;points=[[0,0.5],[1,0.5]];portConstraint=eastwest;whiteSpace=wrap;html=1;" parent="j5q3sJ4_oy7Jc_l38y-Y-7" vertex="1">
          <mxGeometry y="88" width="160" height="26" as="geometry" />
        </mxCell>
        <mxCell id="j5q3sJ4_oy7Jc_l38y-Y-54" style="edgeStyle=orthogonalEdgeStyle;rounded=0;orthogonalLoop=1;jettySize=auto;html=1;exitX=0.5;exitY=0;exitDx=0;exitDy=0;entryX=1;entryY=0.5;entryDx=0;entryDy=0;" parent="1" source="j5q3sJ4_oy7Jc_l38y-Y-15" target="j5q3sJ4_oy7Jc_l38y-Y-43" edge="1">
          <mxGeometry relative="1" as="geometry" />
        </mxCell>
        <mxCell id="j5q3sJ4_oy7Jc_l38y-Y-15" value="TextStrong" style="swimlane;fontStyle=1;align=center;verticalAlign=top;childLayout=stackLayout;horizontal=1;startSize=26;horizontalStack=0;resizeParent=1;resizeParentMax=0;resizeLast=0;collapsible=1;marginBottom=0;whiteSpace=wrap;html=1;fillColor=#ffe6cc;strokeColor=#d79b00;" parent="1" vertex="1">
          <mxGeometry x="1290" y="460" width="160" height="94" as="geometry" />
        </mxCell>
        <mxCell id="j5q3sJ4_oy7Jc_l38y-Y-16" value="+ text: String&lt;br style=&quot;border-color: var(--border-color);&quot;&gt;+ textStyle: TextStyle" style="text;strokeColor=none;fillColor=none;align=left;verticalAlign=top;spacingLeft=4;spacingRight=4;overflow=hidden;rotatable=0;points=[[0,0.5],[1,0.5]];portConstraint=eastwest;whiteSpace=wrap;html=1;" parent="j5q3sJ4_oy7Jc_l38y-Y-15" vertex="1">
          <mxGeometry y="26" width="160" height="34" as="geometry" />
        </mxCell>
        <mxCell id="j5q3sJ4_oy7Jc_l38y-Y-17" value="" style="line;strokeWidth=1;fillColor=none;align=left;verticalAlign=middle;spacingTop=-1;spacingLeft=3;spacingRight=3;rotatable=0;labelPosition=right;points=[];portConstraint=eastwest;strokeColor=inherit;" parent="j5q3sJ4_oy7Jc_l38y-Y-15" vertex="1">
          <mxGeometry y="60" width="160" height="8" as="geometry" />
        </mxCell>
        <mxCell id="j5q3sJ4_oy7Jc_l38y-Y-18" value="+ Build" style="text;strokeColor=none;fillColor=none;align=left;verticalAlign=top;spacingLeft=4;spacingRight=4;overflow=hidden;rotatable=0;points=[[0,0.5],[1,0.5]];portConstraint=eastwest;whiteSpace=wrap;html=1;" parent="j5q3sJ4_oy7Jc_l38y-Y-15" vertex="1">
          <mxGeometry y="68" width="160" height="26" as="geometry" />
        </mxCell>
        <mxCell id="j5q3sJ4_oy7Jc_l38y-Y-59" style="edgeStyle=orthogonalEdgeStyle;rounded=0;orthogonalLoop=1;jettySize=auto;html=1;exitX=0.5;exitY=0;exitDx=0;exitDy=0;entryX=1;entryY=0.5;entryDx=0;entryDy=0;" parent="1" source="j5q3sJ4_oy7Jc_l38y-Y-19" target="j5q3sJ4_oy7Jc_l38y-Y-43" edge="1">
          <mxGeometry relative="1" as="geometry">
            <Array as="points">
              <mxPoint x="1370" y="560" />
              <mxPoint x="1270" y="560" />
              <mxPoint x="1270" y="438" />
            </Array>
          </mxGeometry>
        </mxCell>
        <mxCell id="j5q3sJ4_oy7Jc_l38y-Y-19" value="TextItalic" style="swimlane;fontStyle=1;align=center;verticalAlign=top;childLayout=stackLayout;horizontal=1;startSize=26;horizontalStack=0;resizeParent=1;resizeParentMax=0;resizeLast=0;collapsible=1;marginBottom=0;whiteSpace=wrap;html=1;fillColor=#ffe6cc;strokeColor=#d79b00;" parent="1" vertex="1">
          <mxGeometry x="1290" y="580" width="160" height="94" as="geometry" />
        </mxCell>
        <mxCell id="j5q3sJ4_oy7Jc_l38y-Y-20" value="+ text: String&lt;br&gt;+ textStyle: TextStyle" style="text;strokeColor=none;fillColor=none;align=left;verticalAlign=top;spacingLeft=4;spacingRight=4;overflow=hidden;rotatable=0;points=[[0,0.5],[1,0.5]];portConstraint=eastwest;whiteSpace=wrap;html=1;" parent="j5q3sJ4_oy7Jc_l38y-Y-19" vertex="1">
          <mxGeometry y="26" width="160" height="34" as="geometry" />
        </mxCell>
        <mxCell id="j5q3sJ4_oy7Jc_l38y-Y-21" value="" style="line;strokeWidth=1;fillColor=none;align=left;verticalAlign=middle;spacingTop=-1;spacingLeft=3;spacingRight=3;rotatable=0;labelPosition=right;points=[];portConstraint=eastwest;strokeColor=inherit;" parent="j5q3sJ4_oy7Jc_l38y-Y-19" vertex="1">
          <mxGeometry y="60" width="160" height="8" as="geometry" />
        </mxCell>
        <mxCell id="j5q3sJ4_oy7Jc_l38y-Y-22" value="+ Build" style="text;strokeColor=none;fillColor=none;align=left;verticalAlign=top;spacingLeft=4;spacingRight=4;overflow=hidden;rotatable=0;points=[[0,0.5],[1,0.5]];portConstraint=eastwest;whiteSpace=wrap;html=1;" parent="j5q3sJ4_oy7Jc_l38y-Y-19" vertex="1">
          <mxGeometry y="68" width="160" height="26" as="geometry" />
        </mxCell>
        <mxCell id="j5q3sJ4_oy7Jc_l38y-Y-60" style="edgeStyle=orthogonalEdgeStyle;rounded=0;orthogonalLoop=1;jettySize=auto;html=1;exitX=0.5;exitY=0;exitDx=0;exitDy=0;entryX=1;entryY=0.5;entryDx=0;entryDy=0;" parent="1" source="j5q3sJ4_oy7Jc_l38y-Y-23" target="j5q3sJ4_oy7Jc_l38y-Y-43" edge="1">
          <mxGeometry relative="1" as="geometry">
            <Array as="points">
              <mxPoint x="1270" y="699" />
              <mxPoint x="1270" y="438" />
            </Array>
          </mxGeometry>
        </mxCell>
        <mxCell id="j5q3sJ4_oy7Jc_l38y-Y-23" value="TextCrossed" style="swimlane;fontStyle=1;align=center;verticalAlign=top;childLayout=stackLayout;horizontal=1;startSize=26;horizontalStack=0;resizeParent=1;resizeParentMax=0;resizeLast=0;collapsible=1;marginBottom=0;whiteSpace=wrap;html=1;fillColor=#ffe6cc;strokeColor=#d79b00;" parent="1" vertex="1">
          <mxGeometry x="1290" y="699" width="160" height="94" as="geometry" />
        </mxCell>
        <mxCell id="j5q3sJ4_oy7Jc_l38y-Y-24" value="+ text: String&lt;br style=&quot;border-color: var(--border-color);&quot;&gt;+ textStyle: TextStyle" style="text;strokeColor=none;fillColor=none;align=left;verticalAlign=top;spacingLeft=4;spacingRight=4;overflow=hidden;rotatable=0;points=[[0,0.5],[1,0.5]];portConstraint=eastwest;whiteSpace=wrap;html=1;" parent="j5q3sJ4_oy7Jc_l38y-Y-23" vertex="1">
          <mxGeometry y="26" width="160" height="34" as="geometry" />
        </mxCell>
        <mxCell id="j5q3sJ4_oy7Jc_l38y-Y-25" value="" style="line;strokeWidth=1;fillColor=none;align=left;verticalAlign=middle;spacingTop=-1;spacingLeft=3;spacingRight=3;rotatable=0;labelPosition=right;points=[];portConstraint=eastwest;strokeColor=inherit;" parent="j5q3sJ4_oy7Jc_l38y-Y-23" vertex="1">
          <mxGeometry y="60" width="160" height="8" as="geometry" />
        </mxCell>
        <mxCell id="j5q3sJ4_oy7Jc_l38y-Y-26" value="+ Build" style="text;strokeColor=none;fillColor=none;align=left;verticalAlign=top;spacingLeft=4;spacingRight=4;overflow=hidden;rotatable=0;points=[[0,0.5],[1,0.5]];portConstraint=eastwest;whiteSpace=wrap;html=1;" parent="j5q3sJ4_oy7Jc_l38y-Y-23" vertex="1">
          <mxGeometry y="68" width="160" height="26" as="geometry" />
        </mxCell>
        <mxCell id="j5q3sJ4_oy7Jc_l38y-Y-27" value="TextStyle" style="swimlane;fontStyle=1;align=center;verticalAlign=top;childLayout=stackLayout;horizontal=1;startSize=26;horizontalStack=0;resizeParent=1;resizeParentMax=0;resizeLast=0;collapsible=1;marginBottom=0;whiteSpace=wrap;html=1;fillColor=#ffe6cc;strokeColor=#d79b00;" parent="1" vertex="1">
          <mxGeometry x="1390" y="810" width="160" height="134" as="geometry" />
        </mxCell>
        <mxCell id="j5q3sJ4_oy7Jc_l38y-Y-28" value="+ font_size: double&lt;br&gt;+ font_weight: double&lt;br&gt;+ font_family: string&lt;br&gt;+ font_color: Color" style="text;strokeColor=none;fillColor=none;align=left;verticalAlign=top;spacingLeft=4;spacingRight=4;overflow=hidden;rotatable=0;points=[[0,0.5],[1,0.5]];portConstraint=eastwest;whiteSpace=wrap;html=1;" parent="j5q3sJ4_oy7Jc_l38y-Y-27" vertex="1">
          <mxGeometry y="26" width="160" height="74" as="geometry" />
        </mxCell>
        <mxCell id="j5q3sJ4_oy7Jc_l38y-Y-29" value="" style="line;strokeWidth=1;fillColor=none;align=left;verticalAlign=middle;spacingTop=-1;spacingLeft=3;spacingRight=3;rotatable=0;labelPosition=right;points=[];portConstraint=eastwest;strokeColor=inherit;" parent="j5q3sJ4_oy7Jc_l38y-Y-27" vertex="1">
          <mxGeometry y="100" width="160" height="8" as="geometry" />
        </mxCell>
        <mxCell id="j5q3sJ4_oy7Jc_l38y-Y-30" value="+ Build" style="text;strokeColor=none;fillColor=none;align=left;verticalAlign=top;spacingLeft=4;spacingRight=4;overflow=hidden;rotatable=0;points=[[0,0.5],[1,0.5]];portConstraint=eastwest;whiteSpace=wrap;html=1;" parent="j5q3sJ4_oy7Jc_l38y-Y-27" vertex="1">
          <mxGeometry y="108" width="160" height="26" as="geometry" />
        </mxCell>
        <mxCell id="j5q3sJ4_oy7Jc_l38y-Y-32" value="DialogType" style="swimlane;fontStyle=1;align=center;verticalAlign=top;childLayout=stackLayout;horizontal=1;startSize=26;horizontalStack=0;resizeParent=1;resizeParentMax=0;resizeLast=0;collapsible=1;marginBottom=0;whiteSpace=wrap;html=1;fillColor=#ffe6cc;strokeColor=#d79b00;" parent="1" vertex="1">
          <mxGeometry x="850" y="310" width="180" height="104" as="geometry" />
        </mxCell>
        <mxCell id="j5q3sJ4_oy7Jc_l38y-Y-33" value="+ general_type: string&lt;br&gt;+ sub_type: string" style="text;strokeColor=none;fillColor=none;align=left;verticalAlign=top;spacingLeft=4;spacingRight=4;overflow=hidden;rotatable=0;points=[[0,0.5],[1,0.5]];portConstraint=eastwest;whiteSpace=wrap;html=1;" parent="j5q3sJ4_oy7Jc_l38y-Y-32" vertex="1">
          <mxGeometry y="26" width="180" height="44" as="geometry" />
        </mxCell>
        <mxCell id="j5q3sJ4_oy7Jc_l38y-Y-34" value="" style="line;strokeWidth=1;fillColor=none;align=left;verticalAlign=middle;spacingTop=-1;spacingLeft=3;spacingRight=3;rotatable=0;labelPosition=right;points=[];portConstraint=eastwest;strokeColor=inherit;" parent="j5q3sJ4_oy7Jc_l38y-Y-32" vertex="1">
          <mxGeometry y="70" width="180" height="8" as="geometry" />
        </mxCell>
        <mxCell id="j5q3sJ4_oy7Jc_l38y-Y-35" value="+ Build // as image&amp;nbsp;" style="text;strokeColor=none;fillColor=none;align=left;verticalAlign=top;spacingLeft=4;spacingRight=4;overflow=hidden;rotatable=0;points=[[0,0.5],[1,0.5]];portConstraint=eastwest;whiteSpace=wrap;html=1;" parent="j5q3sJ4_oy7Jc_l38y-Y-32" vertex="1">
          <mxGeometry y="78" width="180" height="26" as="geometry" />
        </mxCell>
        <mxCell id="j5q3sJ4_oy7Jc_l38y-Y-36" value="TextAnimation" style="swimlane;fontStyle=1;align=center;verticalAlign=top;childLayout=stackLayout;horizontal=1;startSize=26;horizontalStack=0;resizeParent=1;resizeParentMax=0;resizeLast=0;collapsible=1;marginBottom=0;whiteSpace=wrap;html=1;fillColor=#ffe6cc;strokeColor=#d79b00;" parent="1" vertex="1">
          <mxGeometry x="1030" y="540" width="160" height="299" as="geometry">
            <mxRectangle x="530" y="555" width="120" height="30" as="alternateBounds" />
          </mxGeometry>
        </mxCell>
        <mxCell id="j5q3sJ4_oy7Jc_l38y-Y-37" value="+ animation: List&amp;lt;Animation&amp;gt;" style="text;strokeColor=none;fillColor=none;align=left;verticalAlign=top;spacingLeft=4;spacingRight=4;overflow=hidden;rotatable=0;points=[[0,0.5],[1,0.5]];portConstraint=eastwest;whiteSpace=wrap;html=1;" parent="j5q3sJ4_oy7Jc_l38y-Y-36" vertex="1">
          <mxGeometry y="26" width="160" height="44" as="geometry" />
        </mxCell>
        <mxCell id="j5q3sJ4_oy7Jc_l38y-Y-40" value="EXAMPLE&lt;br&gt;animations:&amp;nbsp;&lt;br&gt;[moveLeft10, zoomIn5, etc]&lt;br&gt;text:&amp;nbsp;&lt;br&gt;[TextNormal, TextItalic, TextCrossed]&amp;nbsp;" style="rounded=0;whiteSpace=wrap;html=1;align=left;fillColor=#f5f5f5;fontColor=#333333;strokeColor=#666666;" parent="j5q3sJ4_oy7Jc_l38y-Y-36" vertex="1">
          <mxGeometry y="70" width="160" height="100" as="geometry" />
        </mxCell>
        <mxCell id="j5q3sJ4_oy7Jc_l38y-Y-41" value="TextNormal (on appearing will move left 10px ) TextItalic (on appearing will zoom in on 5px) TextCrossed ( etc )" style="ellipse;whiteSpace=wrap;html=1;fillColor=#f5f5f5;fontColor=#333333;strokeColor=#666666;" parent="j5q3sJ4_oy7Jc_l38y-Y-36" vertex="1">
          <mxGeometry y="170" width="160" height="95" as="geometry" />
        </mxCell>
        <mxCell id="j5q3sJ4_oy7Jc_l38y-Y-38" value="" style="line;strokeWidth=1;fillColor=none;align=left;verticalAlign=middle;spacingTop=-1;spacingLeft=3;spacingRight=3;rotatable=0;labelPosition=right;points=[];portConstraint=eastwest;strokeColor=inherit;" parent="j5q3sJ4_oy7Jc_l38y-Y-36" vertex="1">
          <mxGeometry y="265" width="160" height="8" as="geometry" />
        </mxCell>
        <mxCell id="j5q3sJ4_oy7Jc_l38y-Y-39" value="+ Build" style="text;strokeColor=none;fillColor=none;align=left;verticalAlign=top;spacingLeft=4;spacingRight=4;overflow=hidden;rotatable=0;points=[[0,0.5],[1,0.5]];portConstraint=eastwest;whiteSpace=wrap;html=1;" parent="j5q3sJ4_oy7Jc_l38y-Y-36" vertex="1">
          <mxGeometry y="273" width="160" height="26" as="geometry" />
        </mxCell>
        <mxCell id="j5q3sJ4_oy7Jc_l38y-Y-42" value="TextSection" style="swimlane;fontStyle=1;align=center;verticalAlign=top;childLayout=stackLayout;horizontal=1;startSize=26;horizontalStack=0;resizeParent=1;resizeParentMax=0;resizeLast=0;collapsible=1;marginBottom=0;whiteSpace=wrap;html=1;fillColor=#ffe6cc;strokeColor=#d79b00;" parent="1" vertex="1">
          <mxGeometry x="1090" y="400" width="160" height="84" as="geometry">
            <mxRectangle x="540" y="440" width="100" height="30" as="alternateBounds" />
          </mxGeometry>
        </mxCell>
        <mxCell id="j5q3sJ4_oy7Jc_l38y-Y-43" value="+ textArray: List&amp;lt;dynamic&amp;gt;" style="text;strokeColor=none;fillColor=none;align=left;verticalAlign=top;spacingLeft=4;spacingRight=4;overflow=hidden;rotatable=0;points=[[0,0.5],[1,0.5]];portConstraint=eastwest;whiteSpace=wrap;html=1;" parent="j5q3sJ4_oy7Jc_l38y-Y-42" vertex="1">
          <mxGeometry y="26" width="160" height="24" as="geometry" />
        </mxCell>
        <mxCell id="j5q3sJ4_oy7Jc_l38y-Y-44" value="" style="line;strokeWidth=1;fillColor=none;align=left;verticalAlign=middle;spacingTop=-1;spacingLeft=3;spacingRight=3;rotatable=0;labelPosition=right;points=[];portConstraint=eastwest;strokeColor=inherit;" parent="j5q3sJ4_oy7Jc_l38y-Y-42" vertex="1">
          <mxGeometry y="50" width="160" height="8" as="geometry" />
        </mxCell>
        <mxCell id="j5q3sJ4_oy7Jc_l38y-Y-45" value="+ Build" style="text;strokeColor=none;fillColor=none;align=left;verticalAlign=top;spacingLeft=4;spacingRight=4;overflow=hidden;rotatable=0;points=[[0,0.5],[1,0.5]];portConstraint=eastwest;whiteSpace=wrap;html=1;" parent="j5q3sJ4_oy7Jc_l38y-Y-42" vertex="1">
          <mxGeometry y="58" width="160" height="26" as="geometry" />
        </mxCell>
        <mxCell id="j5q3sJ4_oy7Jc_l38y-Y-48" style="edgeStyle=orthogonalEdgeStyle;rounded=0;orthogonalLoop=1;jettySize=auto;html=1;exitX=0.5;exitY=0;exitDx=0;exitDy=0;entryX=1.022;entryY=0.204;entryDx=0;entryDy=0;entryPerimeter=0;" parent="1" source="j5q3sJ4_oy7Jc_l38y-Y-42" target="j5q3sJ4_oy7Jc_l38y-Y-8" edge="1">
          <mxGeometry relative="1" as="geometry" />
        </mxCell>
        <mxCell id="j5q3sJ4_oy7Jc_l38y-Y-49" style="edgeStyle=orthogonalEdgeStyle;rounded=0;orthogonalLoop=1;jettySize=auto;html=1;exitX=0.5;exitY=0;exitDx=0;exitDy=0;entryX=1.008;entryY=0.743;entryDx=0;entryDy=0;entryPerimeter=0;" parent="1" source="j5q3sJ4_oy7Jc_l38y-Y-36" target="j5q3sJ4_oy7Jc_l38y-Y-8" edge="1">
          <mxGeometry relative="1" as="geometry" />
        </mxCell>
        <mxCell id="j5q3sJ4_oy7Jc_l38y-Y-51" style="edgeStyle=orthogonalEdgeStyle;rounded=0;orthogonalLoop=1;jettySize=auto;html=1;exitX=0.5;exitY=0;exitDx=0;exitDy=0;entryX=1.017;entryY=0.87;entryDx=0;entryDy=0;entryPerimeter=0;" parent="1" source="j5q3sJ4_oy7Jc_l38y-Y-27" target="j5q3sJ4_oy7Jc_l38y-Y-16" edge="1">
          <mxGeometry relative="1" as="geometry" />
        </mxCell>
        <mxCell id="j5q3sJ4_oy7Jc_l38y-Y-52" style="edgeStyle=orthogonalEdgeStyle;rounded=0;orthogonalLoop=1;jettySize=auto;html=1;exitX=0.5;exitY=0;exitDx=0;exitDy=0;entryX=1.017;entryY=0.903;entryDx=0;entryDy=0;entryPerimeter=0;" parent="1" source="j5q3sJ4_oy7Jc_l38y-Y-27" target="j5q3sJ4_oy7Jc_l38y-Y-20" edge="1">
          <mxGeometry relative="1" as="geometry" />
        </mxCell>
        <mxCell id="j5q3sJ4_oy7Jc_l38y-Y-53" style="edgeStyle=orthogonalEdgeStyle;rounded=0;orthogonalLoop=1;jettySize=auto;html=1;exitX=0.5;exitY=0;exitDx=0;exitDy=0;entryX=1.008;entryY=0.852;entryDx=0;entryDy=0;entryPerimeter=0;" parent="1" source="j5q3sJ4_oy7Jc_l38y-Y-27" target="j5q3sJ4_oy7Jc_l38y-Y-24" edge="1">
          <mxGeometry relative="1" as="geometry" />
        </mxCell>
        <mxCell id="j5q3sJ4_oy7Jc_l38y-Y-57" style="edgeStyle=orthogonalEdgeStyle;rounded=0;orthogonalLoop=1;jettySize=auto;html=1;exitX=0.5;exitY=0;exitDx=0;exitDy=0;entryX=1.019;entryY=0.127;entryDx=0;entryDy=0;entryPerimeter=0;" parent="1" source="j5q3sJ4_oy7Jc_l38y-Y-32" target="j5q3sJ4_oy7Jc_l38y-Y-4" edge="1">
          <mxGeometry relative="1" as="geometry" />
        </mxCell>
        <mxCell id="j5q3sJ4_oy7Jc_l38y-Y-58" style="edgeStyle=orthogonalEdgeStyle;rounded=0;orthogonalLoop=1;jettySize=auto;html=1;exitX=0.5;exitY=0;exitDx=0;exitDy=0;entryX=0.996;entryY=0.374;entryDx=0;entryDy=0;entryPerimeter=0;" parent="1" source="j5q3sJ4_oy7Jc_l38y-Y-7" target="j5q3sJ4_oy7Jc_l38y-Y-4" edge="1">
          <mxGeometry relative="1" as="geometry" />
        </mxCell>
        <mxCell id="j5q3sJ4_oy7Jc_l38y-Y-62" value="BG" style="rounded=0;whiteSpace=wrap;html=1;fillColor=#fff2cc;strokeColor=#d6b656;" parent="1" vertex="1">
          <mxGeometry x="640" y="630" width="120" height="60" as="geometry" />
        </mxCell>
        <mxCell id="j5q3sJ4_oy7Jc_l38y-Y-63" value="layer" style="rounded=0;whiteSpace=wrap;html=1;fillColor=#fff2cc;strokeColor=#d6b656;" parent="1" vertex="1">
          <mxGeometry x="810" y="631.5" width="120" height="60" as="geometry" />
        </mxCell>
        <mxCell id="j5q3sJ4_oy7Jc_l38y-Y-66" value="shift xy" style="rounded=0;whiteSpace=wrap;html=1;" parent="1" vertex="1">
          <mxGeometry x="820" y="722.5" width="90" height="31" as="geometry" />
        </mxCell>
        <mxCell id="j5q3sJ4_oy7Jc_l38y-Y-67" value="zoom xyz" style="rounded=0;whiteSpace=wrap;html=1;" parent="1" vertex="1">
          <mxGeometry x="820" y="753.5" width="90" height="31" as="geometry" />
        </mxCell>
        <mxCell id="j5q3sJ4_oy7Jc_l38y-Y-68" value="path" style="rounded=0;whiteSpace=wrap;html=1;" parent="1" vertex="1">
          <mxGeometry x="820" y="691.5" width="90" height="31" as="geometry" />
        </mxCell>
        <mxCell id="j5q3sJ4_oy7Jc_l38y-Y-69" value="+ layers[]" style="rounded=0;whiteSpace=wrap;html=1;" parent="1" vertex="1">
          <mxGeometry x="650" y="690" width="90" height="30" as="geometry" />
        </mxCell>
        <mxCell id="j5q3sJ4_oy7Jc_l38y-Y-70" value="+ effect" style="rounded=0;whiteSpace=wrap;html=1;" parent="1" vertex="1">
          <mxGeometry x="650" y="720" width="90" height="32.5" as="geometry" />
        </mxCell>
        <mxCell id="nhKaS6N8COKXfO02Lj3j-1" value="Characher" style="rounded=0;whiteSpace=wrap;html=1;fillColor=#fff2cc;strokeColor=#d6b656;" vertex="1" parent="1">
          <mxGeometry x="450" y="634" width="120" height="60" as="geometry" />
        </mxCell>
        <mxCell id="nhKaS6N8COKXfO02Lj3j-2" value="body pnh" style="rounded=0;whiteSpace=wrap;html=1;" vertex="1" parent="1">
          <mxGeometry x="450" y="693" width="110" height="30" as="geometry" />
        </mxCell>
        <mxCell id="nhKaS6N8COKXfO02Lj3j-3" value="clothes png" style="rounded=0;whiteSpace=wrap;html=1;" vertex="1" parent="1">
          <mxGeometry x="450" y="723" width="110" height="30" as="geometry" />
        </mxCell>
        <mxCell id="nhKaS6N8COKXfO02Lj3j-4" value="expression png" style="rounded=0;whiteSpace=wrap;html=1;" vertex="1" parent="1">
          <mxGeometry x="450" y="753" width="110" height="30" as="geometry" />
        </mxCell>
        <mxCell id="nhKaS6N8COKXfO02Lj3j-5" value="etc" style="rounded=0;whiteSpace=wrap;html=1;" vertex="1" parent="1">
          <mxGeometry x="450" y="783" width="110" height="30" as="geometry" />
        </mxCell>
      </root>
    </mxGraphModel>
  </diagram>
</mxfile>
